<svg width="121" height="28" viewBox="0 0 121 28" fill="none" xmlns="http://www.w3.org/2000/svg">
<g clip-path="url(#clip0_127_4656)">
<g clip-path="url(#clip1_127_4656)">
<g clip-path="url(#clip2_127_4656)">
<g clip-path="url(#clip3_127_4656)">
<g clip-path="url(#clip4_127_4656)">
<g clip-path="url(#clip5_127_4656)">
<g clip-path="url(#clip6_127_4656)">
<g clip-path="url(#clip7_127_4656)">
<path d="M52.3752 7.29961C52.6674 7.65016 52.8718 7.93255 52.9887 8.14677C53.1055 8.36099 53.164 8.56548 53.164 8.76023C53.164 8.99393 53.014 9.26657 52.7141 9.57817C52.4103 9.88977 52.1123 10.0456 51.8202 10.0456C51.4307 10.0456 51.1191 9.98715 50.8854 9.8703C50.6517 9.75345 50.457 9.56844 50.3012 9.31526C49.9896 8.84787 49.6098 8.44279 49.1619 8.10003C48.7139 7.76117 48.0129 7.59173 47.0586 7.59173C46.2406 7.59173 45.3117 7.77675 44.2717 8.14677C43.2279 8.51679 42.482 8.97445 42.0341 9.51975C41.6446 10.0066 41.3096 10.7467 41.0292 11.7399C40.7448 12.7331 40.6027 13.6971 40.6027 14.6319C40.6027 15.7615 40.8519 16.7975 41.3505 17.7401C41.8451 18.6866 42.5657 19.4422 43.5122 20.007C44.4548 20.5718 45.5882 20.8541 46.9125 20.8541C47.6331 20.8541 48.379 20.712 49.1502 20.4276C49.9175 20.1472 50.5835 19.6856 51.1483 19.043H51.1191C51.4696 18.673 51.9078 18.4879 52.4337 18.4879C52.7453 18.4879 53.0432 18.6243 53.3276 18.8969C53.608 19.1696 53.7482 19.4422 53.7482 19.7149C53.7482 20.007 53.7054 20.2641 53.6197 20.4861C53.5301 20.712 53.3685 20.9613 53.1348 21.2339C52.3363 22.1297 51.3917 22.7432 50.3012 23.0743C49.2106 23.4054 47.9057 23.5709 46.3867 23.5709C45.0429 23.5709 43.6855 23.2496 42.3145 22.6069C40.9396 21.9642 39.8821 21.1852 39.142 20.2699C38.7525 19.7051 38.3786 18.8911 38.0203 17.8277C37.658 16.7683 37.4769 15.9075 37.4769 15.2454C37.4769 13.5511 37.7359 11.9385 38.254 10.4078C38.7681 8.88097 39.5413 7.6599 40.5734 6.74458C41.2551 6.12138 42.2385 5.65398 43.5239 5.34238C44.8092 5.03078 45.9875 4.87499 47.0586 4.87499C48.3634 4.87499 49.3917 5.05415 50.1434 5.41249C50.8912 5.77473 51.6352 6.40376 52.3752 7.29961ZM59.8828 4.99183C59.8828 5.49818 59.8731 6.08632 59.8536 6.75626C59.8341 7.43009 59.8146 7.94228 59.7952 8.29283C59.7367 9.28605 59.7075 10.2793 59.7075 11.2725C59.7075 12.0125 59.7367 12.7818 59.7952 13.5803C60.3989 12.7039 61.0513 12.0612 61.7524 11.6523C62.4535 11.2433 63.3007 11.0388 64.2939 11.0388C65.0144 11.0388 65.6863 11.3601 66.3095 12.0028C66.9327 12.6455 67.332 13.3953 67.5072 14.2521C67.5657 15.0117 67.5949 15.9367 67.5949 17.0273C67.5949 17.7284 67.6338 18.6437 67.7117 19.7733C67.7507 20.2017 67.8617 20.601 68.0447 20.971C68.2317 21.341 68.5005 21.526 68.851 21.526C69.0263 21.526 69.1665 21.5163 69.2717 21.4968C69.3807 21.4773 69.4839 21.4676 69.5813 21.4676C69.854 21.4676 70.0429 21.5358 70.148 21.6721C70.2571 21.8084 70.3116 22.0032 70.3116 22.2563C70.3116 22.7237 70.0779 23.0743 69.6105 23.308C69.1431 23.5417 68.7147 23.6585 68.3252 23.6585C66.923 23.6585 65.959 23.0743 65.4332 21.9058C65.141 21.2436 64.956 20.3809 64.8781 19.3176C64.8002 18.2581 64.7613 17.0176 64.7613 15.5959C64.7613 14.1937 64.2841 13.4926 63.3299 13.4926C62.804 13.4926 62.2724 13.7692 61.7349 14.3223C61.2013 14.8792 60.7592 15.6096 60.4086 16.5132C60.0581 17.4207 59.8828 18.3614 59.8828 19.3351L59.912 22.3732C59.912 22.8016 59.7465 23.1171 59.4154 23.3197C59.0843 23.5261 58.7727 23.6293 58.4806 23.6293C58.0522 23.6293 57.6627 23.4969 57.3121 23.232C56.9616 22.9711 56.7863 22.675 56.7863 22.344C56.9226 20.8834 56.9908 18.4393 56.9908 15.0117C56.9908 14.3885 56.9421 12.0807 56.8447 8.08834L56.7571 5.40081C56.7571 4.97236 56.9518 4.59649 57.3413 4.27321C57.7308 3.95382 58.169 3.79413 58.6559 3.79413C59.0843 3.79413 59.3959 3.8915 59.5907 4.08625C59.7854 4.281 59.8828 4.58286 59.8828 4.99183ZM85.356 22.1103C85.356 22.5387 85.1262 22.899 84.6666 23.1911C84.207 23.4833 83.7824 23.6293 83.3929 23.6293C82.6568 23.6293 82.0686 23.5358 81.6285 23.3489C81.1922 23.1658 80.7891 22.8211 80.4191 22.3148C79.9127 22.7627 79.2214 23.0976 78.345 23.3197C77.4686 23.5456 76.6604 23.6585 75.9204 23.6585C74.7129 23.6585 73.7197 23.3313 72.9407 22.677C72.1617 22.0265 71.7722 21.0684 71.7722 19.8025C71.7722 19.2572 71.9183 18.7547 72.2104 18.2951C72.5025 17.8394 72.9018 17.4363 73.4081 17.0857C73.9729 16.7157 74.6156 16.4275 75.3361 16.2211C76.0567 16.0185 76.8065 15.9173 77.5855 15.9173C77.9945 15.9173 78.4813 15.9952 79.0461 16.151C79.607 16.3068 80.0452 16.4723 80.3607 16.6476V16.1802C80.3607 15.1285 80.1055 14.4021 79.5953 14.0009C79.0928 13.6036 78.2769 13.405 77.1473 13.405C76.8162 13.405 76.4891 13.4732 76.1658 13.6095C75.8425 13.7458 75.4764 13.9308 75.0674 14.1645C74.526 14.4566 74.0118 14.6027 73.525 14.6027C73.3497 14.6027 73.1822 14.48 73.0225 14.2346C72.8706 13.9931 72.7947 13.775 72.7947 13.5803C72.7947 13.0155 73.0615 12.5286 73.5951 12.1196C74.1326 11.7107 74.7694 11.403 75.5056 11.1965C76.2495 10.994 76.9136 10.8927 77.4979 10.8927C78.0821 10.8927 78.754 11.0037 79.5135 11.2257C80.273 11.4517 80.8962 11.7594 81.3831 12.1489C81.9673 12.6552 82.4192 13.2434 82.7386 13.9133C83.0618 14.5871 83.2235 15.3233 83.2235 16.1217C83.2235 16.3749 83.204 16.7547 83.1651 17.261C83.1222 17.8063 83.1008 18.2737 83.1008 18.6632C83.1008 18.8385 83.0833 19.1014 83.0482 19.4519C83.0093 19.8804 82.9898 20.2212 82.9898 20.4744C82.9898 20.7081 83.0755 20.9087 83.2468 21.0762C83.426 21.2397 83.6325 21.3215 83.8661 21.3215L84.6841 21.2923C84.8944 21.2923 85.06 21.3702 85.1807 21.526C85.2976 21.6818 85.356 21.8766 85.356 22.1103ZM75.9438 21.3507C76.7851 21.3507 77.4881 21.2631 78.0529 21.0878C78.6177 20.9126 79.2993 20.5912 80.0978 20.1238C80.1757 19.7928 80.2243 19.3546 80.2438 18.8093C79.1727 18.3029 78.2866 18.0498 77.5855 18.0498C76.7831 18.0498 76.0723 18.1958 75.453 18.4879C74.8259 18.7801 74.5124 19.2961 74.5124 20.0362C74.5124 20.4062 74.6701 20.7178 74.9856 20.971C75.2972 21.2242 75.6166 21.3507 75.9438 21.3507ZM88.6803 13.5218L87.2782 13.405C87.0055 13.366 86.7874 13.2492 86.6238 13.0544C86.4563 12.8597 86.3726 12.626 86.3726 12.3533C86.3726 12.217 86.4076 12.071 86.4777 11.9152C86.5439 11.7594 86.6452 11.623 86.7815 11.5062C87.0347 11.253 87.7163 11.1264 88.8264 11.1264C88.9822 10.3669 89.0601 9.59765 89.0601 8.81865C89.0601 8.52653 89.0504 8.27336 89.0309 8.05913C89.0114 7.84491 89.0017 7.67937 89.0017 7.56252C89.0017 7.13407 89.1633 6.81274 89.4866 6.59851C89.806 6.38429 90.1702 6.27718 90.5791 6.27718C91.0855 6.27718 91.4321 6.40376 91.6191 6.65694C91.8022 6.91011 91.8937 7.37751 91.8937 8.05913C91.8937 9.07183 91.8061 10.065 91.6308 11.0388C91.9424 11.0388 92.3708 11.0193 92.9161 10.9804C93.6562 10.9414 94.1917 10.9219 94.5228 10.9219C94.8539 10.9219 95.1421 11.0037 95.3875 11.1673C95.629 11.3348 95.7497 11.5646 95.7497 11.8567C95.7497 12.6163 95.4089 13.0642 94.7273 13.2005C94.0067 13.3758 92.8869 13.4829 91.3679 13.5218C91.3095 14.2814 91.2802 15.109 91.2802 16.0049C91.2802 17.4071 91.3679 18.5561 91.5432 19.4519C91.66 20.0751 91.8606 20.527 92.1449 20.8074C92.4254 21.0917 92.848 21.2339 93.4127 21.2339C93.7438 21.2339 94.0846 21.1463 94.4352 20.971C94.6689 20.8347 94.8831 20.7665 95.0779 20.7665C95.3505 20.7665 95.5511 20.8541 95.6796 21.0294C95.8043 21.2047 95.8666 21.4384 95.8666 21.7305C95.8666 22.2758 95.5745 22.7276 94.9902 23.086C94.406 23.4482 93.6562 23.6293 92.7409 23.6293C92.1761 23.6293 91.6074 23.493 91.0349 23.2203C90.4584 22.9477 89.9754 22.6069 89.5859 22.1979C89.5275 22.1395 89.4204 21.9155 89.2646 21.526C89.1088 21.1365 88.9725 20.7178 88.8556 20.2699C88.6609 19.3546 88.5635 18.0692 88.5635 16.4139C88.5635 15.6933 88.6024 14.7293 88.6803 13.5218ZM99.7518 4.75814C100.433 4.81656 101.027 4.99573 101.534 5.29564C102.04 5.59945 102.293 6.05322 102.293 6.65694C102.293 7.10486 102.083 7.4593 101.662 7.72027C101.246 7.98513 100.745 8.11756 100.161 8.11756C99.596 8.11756 99.2065 7.97149 98.9923 7.67937C98.7781 7.38725 98.671 7.08539 98.671 6.77379C98.671 6.18954 98.7333 5.70267 98.8579 5.31317C98.9865 4.92367 99.2844 4.73866 99.7518 4.75814ZM102.089 12.441V17.6992V18.5464C102.089 19.3059 102.114 20.0206 102.165 20.6906C102.212 21.3644 102.274 22.0421 102.352 22.7237C102.332 22.9185 102.186 23.1171 101.914 23.3197C101.641 23.5261 101.397 23.6293 101.183 23.6293C100.813 23.6293 100.437 23.5553 100.056 23.4073C99.6778 23.2632 99.45 23.084 99.3721 22.8698C99.2552 22.2466 99.1968 21.6916 99.1968 21.2047C99.1968 19.6077 99.1481 17.8161 99.0507 15.8296C98.9728 14.0769 98.9339 12.85 98.9339 12.1489C98.9339 11.7983 99.1092 11.4965 99.4597 11.2433C99.8102 10.9901 100.18 10.8635 100.57 10.8635C101.135 10.8635 101.53 10.9901 101.756 11.2433C101.978 11.4965 102.089 11.8957 102.089 12.441ZM119.061 21.2631C119.159 21.3021 119.314 21.3507 119.529 21.4092C119.743 21.4676 119.899 21.526 119.996 21.5844C120.093 21.6429 120.142 21.7305 120.142 21.8474C120.162 22.3148 119.99 22.6984 119.628 22.9983C119.27 23.3021 118.847 23.454 118.36 23.454C117.601 23.454 117.007 23.2496 116.578 22.8406C116.15 22.4316 115.838 21.8084 115.643 20.971C115.565 20.6399 115.526 20.1823 115.526 19.598C115.526 19.2669 115.546 18.7314 115.585 17.9913C115.624 17.2123 115.643 16.5891 115.643 16.1217C115.643 15.4401 115.452 14.8403 115.071 14.3223C114.693 13.8081 114.163 13.5511 113.482 13.5511C113.073 13.5511 112.644 13.6718 112.196 13.9133C111.748 14.1587 111.437 14.4566 111.261 14.8072C110.969 15.372 110.765 15.9854 110.648 16.6476C110.434 17.8161 110.327 19.0332 110.327 20.2991C110.327 20.9028 110.336 21.3702 110.356 21.7013C110.356 21.7792 110.36 21.9292 110.368 22.1512C110.379 22.3771 110.36 22.5816 110.309 22.7646C110.262 22.9516 110.181 23.123 110.064 23.2788C109.966 23.3761 109.815 23.4599 109.608 23.53C109.406 23.5962 109.217 23.6293 109.041 23.6293C108.769 23.6293 108.428 23.5125 108.019 23.2788C107.61 23.0451 107.376 22.7822 107.318 22.49L107.289 21.9934C107.289 21.8181 107.308 21.6137 107.347 21.38C107.581 20.0167 107.698 18.8288 107.698 17.8161C107.698 17.3681 107.688 17.0176 107.668 16.7644L107.639 15.3914C107.639 14.924 107.522 14.4703 107.289 14.0301C107.055 13.5939 106.782 13.3758 106.471 13.3758C106.373 13.3758 106.237 13.4089 106.062 13.4751C105.886 13.5452 105.74 13.5803 105.624 13.5803C105.429 13.5803 105.218 13.4829 104.993 13.2881C104.771 13.0934 104.66 12.8889 104.66 12.6747C104.66 12.2657 104.796 11.9346 105.068 11.6815C105.361 11.4478 105.647 11.2628 105.927 11.1264C106.212 10.9901 106.539 10.9219 106.909 10.9219C107.22 10.9219 107.474 10.9512 107.668 11.0096C107.863 11.068 108.126 11.1946 108.457 11.3893C108.632 11.4867 108.837 11.7009 109.071 12.032C109.304 12.3631 109.499 12.8305 109.655 13.4342C110.161 12.4994 110.788 11.8412 111.536 11.4594C112.288 11.0816 113.248 10.8927 114.416 10.8927C114.864 10.8927 115.345 11.0388 115.86 11.3309C116.378 11.623 116.822 11.9638 117.192 12.3533C117.542 12.7818 117.834 13.3115 118.068 13.9425C118.302 14.5774 118.419 15.148 118.419 15.6543C118.419 15.9465 118.399 16.4236 118.36 17.0857C118.302 17.6116 118.272 18.1666 118.272 18.7509C118.272 20.1141 118.535 20.9515 119.061 21.2631Z" fill="#3A0CA3"/>
</g>
</g>
</g>
</g>
<g clip-path="url(#clip8_127_4656)">
<g clip-path="url(#clip9_127_4656)">
<path d="M30.7162 17.2801H30.7136C32.0675 15.5009 32.8269 13.4223 32.7827 11.2148C32.6581 4.86229 25.9372 -0.156918 17.773 0.00375224C9.60892 0.164133 3.09254 5.44428 3.21737 11.7954C3.21968 11.9118 3.22402 12.0277 3.23124 12.1433L3.63061 11.8864C3.62887 11.8511 5.78578 10.7395 5.78578 10.7042C5.78578 6.08465 12.4854 1.64368 17.7719 1.64368C22.5379 1.64368 30.698 4.37768 30.698 11.2371C30.6977 13.3099 29.5074 15.3873 28.2203 17.0573C27.143 18.7267 28.4287 22.4871 28.4287 22.4871L24.1998 20.236C23.0939 20.5805 21.3823 20.7417 20.9127 20.8744C20.3466 22.1987 19.4676 22.942 19.4676 22.942C20.9564 22.838 22.1053 22.5845 23.4355 22.1647L30.9272 25.3847C30.9272 25.3847 28.39 20.2606 30.7162 17.2801ZM10.8099 10.3727C5.31591 10.2647 0.793452 13.6425 0.70936 17.9176C0.679596 19.4029 1.19108 20.8016 2.10135 21.9988H2.09991C3.66499 24.0043 1.95802 27.4526 1.95802 27.4526L6.99948 25.2859C8.08602 25.6289 9.26677 25.828 10.5039 25.8525C15.9979 25.9606 20.5203 22.5831 20.6047 18.308C20.6891 14.0338 16.3039 10.4808 10.8099 10.3727Z" fill="url(#paint0_linear_127_4656)"/>
</g>
</g>
</g>
</g>
</g>
</g>
<defs>
<linearGradient id="paint0_linear_127_4656" x1="0.708129" y1="-0.155155" x2="37.6514" y2="10.6362" gradientUnits="userSpaceOnUse">
<stop stop-color="#F72585"/>
<stop offset="1" stop-color="#3A0CA3"/>
</linearGradient>
<clipPath id="clip0_127_4656">
<rect width="120" height="27.48" fill="white" transform="translate(0.5)"/>
</clipPath>
<clipPath id="clip1_127_4656">
<rect width="120" height="27.48" fill="white" transform="translate(0.427246 -0.0136719)"/>
</clipPath>
<clipPath id="clip2_127_4656">
<rect width="119.438" height="27.4526" fill="white" transform="translate(0.70813)"/>
</clipPath>
<clipPath id="clip3_127_4656">
<rect width="119.438" height="27.4526" fill="white" transform="translate(0.70813)"/>
</clipPath>
<clipPath id="clip4_127_4656">
<rect width="82.6725" height="19.8644" fill="white" transform="translate(37.474 3.79413)"/>
</clipPath>
<clipPath id="clip5_127_4656">
<rect width="82.6725" height="19.8644" fill="white" transform="translate(37.474 3.79413)"/>
</clipPath>
<clipPath id="clip6_127_4656">
<rect width="82.6725" height="19.8644" fill="white" transform="translate(37.474 3.79413)"/>
</clipPath>
<clipPath id="clip7_127_4656">
<rect width="82.6725" height="19.8644" fill="white" transform="translate(37.474 3.79413)"/>
</clipPath>
<clipPath id="clip8_127_4656">
<rect width="32.0764" height="27.4526" fill="white" transform="translate(0.70813)"/>
</clipPath>
<clipPath id="clip9_127_4656">
<rect width="32.0764" height="27.4526" fill="white" transform="translate(0.70813)"/>
</clipPath>
</defs>
</svg>
