<svg width="65" height="56" viewBox="0 0 65 56" fill="none" xmlns="http://www.w3.org/2000/svg">
<g clip-path="url(#clip0_519_498)">
<g clip-path="url(#clip1_519_498)">
<path d="M60.3733 35.0907H60.3681C63.0693 31.5407 64.5846 27.3934 64.4964 22.989C64.2479 10.3141 50.8379 0.299644 34.5485 0.620219C18.2592 0.940217 5.25746 11.4754 5.50654 24.1473C5.51115 24.3797 5.5198 24.6109 5.53421 24.8415L6.33104 24.3289C6.32758 24.2586 10.6311 22.0405 10.6311 21.9702C10.6311 12.7531 23.9984 3.89227 34.5462 3.89227C44.0557 3.89227 60.337 9.34724 60.337 23.0334C60.3364 27.1691 57.9615 31.3141 55.3934 34.6461C53.2439 37.977 55.8091 45.4799 55.8091 45.4799L47.3715 40.9884C45.165 41.6757 41.75 41.9974 40.813 42.2621C39.6835 44.9045 37.9296 46.3875 37.9296 46.3875C40.9001 46.1799 43.1925 45.6743 45.8465 44.8365L60.7942 51.2612C60.7942 51.2612 55.7319 41.0374 60.3733 35.0907ZM20.6554 21.3088C9.69362 21.0932 0.670238 27.8328 0.502455 36.3626C0.443068 39.3262 1.4636 42.1168 3.27981 44.5055H3.27693C6.39965 48.507 2.99383 55.3872 2.99383 55.3872L13.0527 51.0641C15.2206 51.7484 17.5765 52.1457 20.0448 52.1947C31.0067 52.4104 40.03 45.6714 40.1984 37.1415C40.3667 28.6134 31.6172 21.5245 20.6554 21.3088Z" fill="url(#paint0_linear_519_498)"/>
</g>
</g>
<defs>
<linearGradient id="paint0_linear_519_498" x1="0.499998" y1="0.303161" x2="74.2105" y2="21.8345" gradientUnits="userSpaceOnUse">
<stop stop-color="#F72585"/>
<stop offset="1" stop-color="#3A0CA3"/>
</linearGradient>
<clipPath id="clip0_519_498">
<rect width="64" height="54.7745" fill="white" transform="translate(0.5 0.612732)"/>
</clipPath>
<clipPath id="clip1_519_498">
<rect width="64" height="54.7745" fill="white" transform="translate(0.5 0.612732)"/>
</clipPath>
</defs>
</svg>
