<svg width="122" height="122" viewBox="0 0 122 122" fill="none" xmlns="http://www.w3.org/2000/svg">
<g clip-path="url(#clip0_259_18962)">
<rect x="1" y="1" width="120" height="120" rx="60" fill="#EADAF4"/>
<g filter="url(#filter0_if_259_18962)">
<path fill-rule="evenodd" clip-rule="evenodd" d="M60.6364 54.6309C73.6904 54.6309 84.2727 43.9683 84.2727 30.8154C84.2727 17.6625 73.6904 7 60.6364 7C47.5824 7 37 17.6625 37 30.8154C37 43.9683 47.5824 54.6309 60.6364 54.6309ZM61.3366 66C39.2711 66 20.6747 84.6618 15 110.109C27.9038 118.002 44.1157 122.701 61.722 122.701C79.0203 122.701 94.9726 118.165 107.764 110.52C102.199 84.8632 83.5209 66 61.3366 66Z" fill="url(#paint0_linear_259_18962)"/>
</g>
<rect x="42.2" y="41.2" width="39.6" height="39.6" rx="7.8" fill="url(#paint1_linear_259_18962)"/>
<path d="M62 51.6666L62.7071 50.9595L62 50.2524L61.2929 50.9595L62 51.6666ZM61 67.6666C61 68.2189 61.4477 68.6666 62 68.6666C62.5523 68.6666 63 68.2189 63 67.6666L61 67.6666ZM70.7071 58.9595L62.7071 50.9595L61.2929 52.3737L69.2929 60.3737L70.7071 58.9595ZM61.2929 50.9595L53.2929 58.9595L54.7071 60.3737L62.7071 52.3737L61.2929 50.9595ZM61 51.6666L61 67.6666L63 67.6666L63 51.6666L61 51.6666Z" fill="#2E0A82"/>
<path d="M52.6667 73L71.3334 73" stroke="#2E0A82" stroke-width="2"/>
<rect x="42.2" y="41.2" width="39.6" height="39.6" rx="7.8" stroke="#3A0CA3" stroke-width="0.4"/>
</g>
<rect x="0.5" y="0.5" width="121" height="121" rx="60.5" stroke="#BBBBBB"/>
<rect x="0.5" y="0.5" width="121" height="121" rx="60.5" stroke="#3A0CA3" stroke-opacity="0.03"/>
<defs>
<filter id="filter0_if_259_18962" x="9" y="1" width="104.764" height="127.701" filterUnits="userSpaceOnUse" color-interpolation-filters="sRGB">
<feFlood flood-opacity="0" result="BackgroundImageFix"/>
<feBlend mode="normal" in="SourceGraphic" in2="BackgroundImageFix" result="shape"/>
<feColorMatrix in="SourceAlpha" type="matrix" values="0 0 0 0 0 0 0 0 0 0 0 0 0 0 0 0 0 0 127 0" result="hardAlpha"/>
<feOffset/>
<feGaussianBlur stdDeviation="10"/>
<feComposite in2="hardAlpha" operator="arithmetic" k2="-1" k3="1"/>
<feColorMatrix type="matrix" values="0 0 0 0 0.6 0 0 0 0 0.6 0 0 0 0 0.6 0 0 0 0.5 0"/>
<feBlend mode="normal" in2="shape" result="effect1_innerShadow_259_18962"/>
<feGaussianBlur stdDeviation="3" result="effect2_foregroundBlur_259_18962"/>
</filter>
<linearGradient id="paint0_linear_259_18962" x1="107.764" y1="64.1968" x2="15" y2="64.1968" gradientUnits="userSpaceOnUse">
<stop stop-color="#FDBBD9"/>
<stop offset="1" stop-color="#C2B4E2"/>
</linearGradient>
<linearGradient id="paint1_linear_259_18962" x1="82" y1="60.7739" x2="42" y2="60.7739" gradientUnits="userSpaceOnUse">
<stop stop-color="#FDBBD9"/>
<stop offset="1" stop-color="#C2B4E2"/>
</linearGradient>
<clipPath id="clip0_259_18962">
<rect x="1" y="1" width="120" height="120" rx="60" fill="white"/>
</clipPath>
</defs>
</svg>
